<mxfile host="app.diagrams.net" agent="Mozilla/5.0 (Windows NT 10.0; Win64; x64) AppleWebKit/537.36 (KHTML, like Gecko) Chrome/135.0.0.0 Safari/537.36 Edg/135.0.0.0" version="27.0.3">
  <diagram name="第 1 页" id="FOITFhJS_t1dugcdVjjt">
    <mxGraphModel dx="1034" dy="570" grid="0" gridSize="10" guides="1" tooltips="1" connect="1" arrows="1" fold="1" page="1" pageScale="1" pageWidth="1200" pageHeight="1600" math="0" shadow="0">
      <root>
        <mxCell id="0" />
        <mxCell id="1" parent="0" />
        <mxCell id="KjQjwmtNO-1HOalbdH8z-14" style="edgeStyle=orthogonalEdgeStyle;rounded=0;orthogonalLoop=1;jettySize=auto;html=1;exitX=0.5;exitY=1;exitDx=0;exitDy=0;entryX=0.5;entryY=0;entryDx=0;entryDy=0;" edge="1" parent="1" source="KjQjwmtNO-1HOalbdH8z-2" target="KjQjwmtNO-1HOalbdH8z-3">
          <mxGeometry relative="1" as="geometry" />
        </mxCell>
        <mxCell id="KjQjwmtNO-1HOalbdH8z-2" value="开始" style="rounded=1;whiteSpace=wrap;html=1;" vertex="1" parent="1">
          <mxGeometry x="165" y="149" width="83" height="29" as="geometry" />
        </mxCell>
        <mxCell id="KjQjwmtNO-1HOalbdH8z-15" style="edgeStyle=orthogonalEdgeStyle;rounded=0;orthogonalLoop=1;jettySize=auto;html=1;exitX=0.5;exitY=1;exitDx=0;exitDy=0;entryX=0.5;entryY=0;entryDx=0;entryDy=0;" edge="1" parent="1" source="KjQjwmtNO-1HOalbdH8z-3" target="KjQjwmtNO-1HOalbdH8z-4">
          <mxGeometry relative="1" as="geometry" />
        </mxCell>
        <mxCell id="KjQjwmtNO-1HOalbdH8z-3" value="系统首页" style="rounded=0;whiteSpace=wrap;html=1;" vertex="1" parent="1">
          <mxGeometry x="155.5" y="203" width="106" height="42" as="geometry" />
        </mxCell>
        <mxCell id="KjQjwmtNO-1HOalbdH8z-16" value="否" style="edgeStyle=orthogonalEdgeStyle;rounded=0;orthogonalLoop=1;jettySize=auto;html=1;exitX=1;exitY=0.5;exitDx=0;exitDy=0;entryX=0;entryY=0.5;entryDx=0;entryDy=0;" edge="1" parent="1" source="KjQjwmtNO-1HOalbdH8z-4" target="KjQjwmtNO-1HOalbdH8z-6">
          <mxGeometry relative="1" as="geometry" />
        </mxCell>
        <mxCell id="KjQjwmtNO-1HOalbdH8z-19" value="是" style="edgeStyle=orthogonalEdgeStyle;rounded=0;orthogonalLoop=1;jettySize=auto;html=1;exitX=0.5;exitY=1;exitDx=0;exitDy=0;entryX=0.5;entryY=0;entryDx=0;entryDy=0;" edge="1" parent="1" source="KjQjwmtNO-1HOalbdH8z-4" target="KjQjwmtNO-1HOalbdH8z-9">
          <mxGeometry relative="1" as="geometry" />
        </mxCell>
        <mxCell id="KjQjwmtNO-1HOalbdH8z-4" value="是否有账号&lt;div&gt;和密码&lt;/div&gt;" style="rhombus;whiteSpace=wrap;html=1;" vertex="1" parent="1">
          <mxGeometry x="151.5" y="267" width="114" height="80" as="geometry" />
        </mxCell>
        <mxCell id="KjQjwmtNO-1HOalbdH8z-17" style="edgeStyle=orthogonalEdgeStyle;rounded=0;orthogonalLoop=1;jettySize=auto;html=1;exitX=0.5;exitY=1;exitDx=0;exitDy=0;entryX=0.5;entryY=0;entryDx=0;entryDy=0;" edge="1" parent="1" source="KjQjwmtNO-1HOalbdH8z-6" target="KjQjwmtNO-1HOalbdH8z-8">
          <mxGeometry relative="1" as="geometry" />
        </mxCell>
        <mxCell id="KjQjwmtNO-1HOalbdH8z-6" value="点击切换注册" style="rounded=0;whiteSpace=wrap;html=1;" vertex="1" parent="1">
          <mxGeometry x="326" y="277" width="120" height="60" as="geometry" />
        </mxCell>
        <mxCell id="KjQjwmtNO-1HOalbdH8z-18" style="edgeStyle=orthogonalEdgeStyle;rounded=0;orthogonalLoop=1;jettySize=auto;html=1;exitX=0;exitY=0.5;exitDx=0;exitDy=0;entryX=1;entryY=0.5;entryDx=0;entryDy=0;" edge="1" parent="1" source="KjQjwmtNO-1HOalbdH8z-8" target="KjQjwmtNO-1HOalbdH8z-9">
          <mxGeometry relative="1" as="geometry" />
        </mxCell>
        <mxCell id="KjQjwmtNO-1HOalbdH8z-8" value="填写注册信息" style="rounded=0;whiteSpace=wrap;html=1;" vertex="1" parent="1">
          <mxGeometry x="326" y="374" width="120" height="60" as="geometry" />
        </mxCell>
        <mxCell id="KjQjwmtNO-1HOalbdH8z-20" style="edgeStyle=orthogonalEdgeStyle;rounded=0;orthogonalLoop=1;jettySize=auto;html=1;exitX=0.5;exitY=1;exitDx=0;exitDy=0;entryX=0.5;entryY=0;entryDx=0;entryDy=0;" edge="1" parent="1" source="KjQjwmtNO-1HOalbdH8z-9" target="KjQjwmtNO-1HOalbdH8z-10">
          <mxGeometry relative="1" as="geometry" />
        </mxCell>
        <mxCell id="KjQjwmtNO-1HOalbdH8z-9" value="填写账号密码登录" style="rounded=0;whiteSpace=wrap;html=1;" vertex="1" parent="1">
          <mxGeometry x="155.5" y="383" width="106" height="42" as="geometry" />
        </mxCell>
        <mxCell id="KjQjwmtNO-1HOalbdH8z-21" style="edgeStyle=orthogonalEdgeStyle;rounded=0;orthogonalLoop=1;jettySize=auto;html=1;exitX=0.5;exitY=1;exitDx=0;exitDy=0;entryX=0.5;entryY=0;entryDx=0;entryDy=0;" edge="1" parent="1" source="KjQjwmtNO-1HOalbdH8z-10" target="KjQjwmtNO-1HOalbdH8z-13">
          <mxGeometry relative="1" as="geometry" />
        </mxCell>
        <mxCell id="KjQjwmtNO-1HOalbdH8z-10" value="进入活动报名系统" style="rounded=0;whiteSpace=wrap;html=1;" vertex="1" parent="1">
          <mxGeometry x="155.5" y="448" width="106" height="42" as="geometry" />
        </mxCell>
        <mxCell id="KjQjwmtNO-1HOalbdH8z-13" value="结束" style="rounded=1;whiteSpace=wrap;html=1;" vertex="1" parent="1">
          <mxGeometry x="165" y="510" width="83" height="32" as="geometry" />
        </mxCell>
        <mxCell id="KjQjwmtNO-1HOalbdH8z-32" style="edgeStyle=orthogonalEdgeStyle;rounded=0;orthogonalLoop=1;jettySize=auto;html=1;exitX=0.5;exitY=1;exitDx=0;exitDy=0;entryX=0.5;entryY=0;entryDx=0;entryDy=0;" edge="1" parent="1" source="KjQjwmtNO-1HOalbdH8z-25" target="KjQjwmtNO-1HOalbdH8z-28">
          <mxGeometry relative="1" as="geometry" />
        </mxCell>
        <mxCell id="KjQjwmtNO-1HOalbdH8z-25" value="开始" style="rounded=1;whiteSpace=wrap;html=1;" vertex="1" parent="1">
          <mxGeometry x="650" y="157" width="92" height="33" as="geometry" />
        </mxCell>
        <mxCell id="KjQjwmtNO-1HOalbdH8z-33" style="edgeStyle=orthogonalEdgeStyle;rounded=0;orthogonalLoop=1;jettySize=auto;html=1;exitX=0.5;exitY=1;exitDx=0;exitDy=0;" edge="1" parent="1" source="KjQjwmtNO-1HOalbdH8z-28" target="KjQjwmtNO-1HOalbdH8z-29">
          <mxGeometry relative="1" as="geometry" />
        </mxCell>
        <mxCell id="KjQjwmtNO-1HOalbdH8z-28" value="填写活动信息" style="rounded=0;whiteSpace=wrap;html=1;" vertex="1" parent="1">
          <mxGeometry x="643" y="225" width="106" height="42" as="geometry" />
        </mxCell>
        <mxCell id="KjQjwmtNO-1HOalbdH8z-34" value="是" style="edgeStyle=orthogonalEdgeStyle;rounded=0;orthogonalLoop=1;jettySize=auto;html=1;exitX=0.5;exitY=1;exitDx=0;exitDy=0;" edge="1" parent="1" source="KjQjwmtNO-1HOalbdH8z-29" target="KjQjwmtNO-1HOalbdH8z-30">
          <mxGeometry relative="1" as="geometry" />
        </mxCell>
        <mxCell id="KjQjwmtNO-1HOalbdH8z-38" value="否" style="edgeStyle=orthogonalEdgeStyle;rounded=0;orthogonalLoop=1;jettySize=auto;html=1;exitX=1;exitY=0.5;exitDx=0;exitDy=0;entryX=1;entryY=0.5;entryDx=0;entryDy=0;" edge="1" parent="1" source="KjQjwmtNO-1HOalbdH8z-29" target="KjQjwmtNO-1HOalbdH8z-28">
          <mxGeometry relative="1" as="geometry" />
        </mxCell>
        <mxCell id="KjQjwmtNO-1HOalbdH8z-29" value="对填写信息校验" style="rhombus;whiteSpace=wrap;html=1;" vertex="1" parent="1">
          <mxGeometry x="639" y="294" width="114" height="80" as="geometry" />
        </mxCell>
        <mxCell id="KjQjwmtNO-1HOalbdH8z-35" style="edgeStyle=orthogonalEdgeStyle;rounded=0;orthogonalLoop=1;jettySize=auto;html=1;exitX=0.5;exitY=1;exitDx=0;exitDy=0;entryX=0.5;entryY=0;entryDx=0;entryDy=0;" edge="1" parent="1" source="KjQjwmtNO-1HOalbdH8z-30" target="KjQjwmtNO-1HOalbdH8z-31">
          <mxGeometry relative="1" as="geometry" />
        </mxCell>
        <mxCell id="KjQjwmtNO-1HOalbdH8z-30" value="新增成功" style="rounded=0;whiteSpace=wrap;html=1;" vertex="1" parent="1">
          <mxGeometry x="643" y="397" width="106" height="42" as="geometry" />
        </mxCell>
        <mxCell id="KjQjwmtNO-1HOalbdH8z-31" value="结束" style="rounded=1;whiteSpace=wrap;html=1;" vertex="1" parent="1">
          <mxGeometry x="654.5" y="466" width="83" height="32" as="geometry" />
        </mxCell>
        <mxCell id="KjQjwmtNO-1HOalbdH8z-39" style="edgeStyle=orthogonalEdgeStyle;rounded=0;orthogonalLoop=1;jettySize=auto;html=1;exitX=0.5;exitY=1;exitDx=0;exitDy=0;entryX=0.5;entryY=0;entryDx=0;entryDy=0;" edge="1" parent="1" source="KjQjwmtNO-1HOalbdH8z-40" target="KjQjwmtNO-1HOalbdH8z-42">
          <mxGeometry relative="1" as="geometry" />
        </mxCell>
        <mxCell id="KjQjwmtNO-1HOalbdH8z-40" value="开始" style="rounded=1;whiteSpace=wrap;html=1;" vertex="1" parent="1">
          <mxGeometry x="337" y="599" width="92" height="33" as="geometry" />
        </mxCell>
        <mxCell id="KjQjwmtNO-1HOalbdH8z-41" style="edgeStyle=orthogonalEdgeStyle;rounded=0;orthogonalLoop=1;jettySize=auto;html=1;exitX=0.5;exitY=1;exitDx=0;exitDy=0;" edge="1" parent="1" source="KjQjwmtNO-1HOalbdH8z-42">
          <mxGeometry relative="1" as="geometry">
            <mxPoint x="383" y="736" as="targetPoint" />
          </mxGeometry>
        </mxCell>
        <mxCell id="KjQjwmtNO-1HOalbdH8z-42" value="点击活动" style="rounded=0;whiteSpace=wrap;html=1;" vertex="1" parent="1">
          <mxGeometry x="330" y="667" width="106" height="42" as="geometry" />
        </mxCell>
        <mxCell id="KjQjwmtNO-1HOalbdH8z-48" value="结束" style="rounded=1;whiteSpace=wrap;html=1;" vertex="1" parent="1">
          <mxGeometry x="341.5" y="986" width="83" height="32" as="geometry" />
        </mxCell>
        <mxCell id="KjQjwmtNO-1HOalbdH8z-62" style="edgeStyle=orthogonalEdgeStyle;rounded=0;orthogonalLoop=1;jettySize=auto;html=1;exitX=0.5;exitY=1;exitDx=0;exitDy=0;entryX=0.5;entryY=0;entryDx=0;entryDy=0;" edge="1" parent="1" source="KjQjwmtNO-1HOalbdH8z-59" target="KjQjwmtNO-1HOalbdH8z-60">
          <mxGeometry relative="1" as="geometry" />
        </mxCell>
        <mxCell id="KjQjwmtNO-1HOalbdH8z-59" value="进入活动详情页面" style="rounded=0;whiteSpace=wrap;html=1;" vertex="1" parent="1">
          <mxGeometry x="330" y="735" width="106" height="42" as="geometry" />
        </mxCell>
        <mxCell id="KjQjwmtNO-1HOalbdH8z-63" style="edgeStyle=orthogonalEdgeStyle;rounded=0;orthogonalLoop=1;jettySize=auto;html=1;exitX=0.5;exitY=1;exitDx=0;exitDy=0;entryX=0.5;entryY=0;entryDx=0;entryDy=0;" edge="1" parent="1" source="KjQjwmtNO-1HOalbdH8z-60" target="KjQjwmtNO-1HOalbdH8z-61">
          <mxGeometry relative="1" as="geometry" />
        </mxCell>
        <mxCell id="KjQjwmtNO-1HOalbdH8z-60" value="输入框输入评论" style="rounded=0;whiteSpace=wrap;html=1;" vertex="1" parent="1">
          <mxGeometry x="330" y="800" width="106" height="42" as="geometry" />
        </mxCell>
        <mxCell id="KjQjwmtNO-1HOalbdH8z-64" style="edgeStyle=orthogonalEdgeStyle;rounded=0;orthogonalLoop=1;jettySize=auto;html=1;exitX=1;exitY=0.5;exitDx=0;exitDy=0;entryX=1;entryY=0.5;entryDx=0;entryDy=0;" edge="1" parent="1" source="KjQjwmtNO-1HOalbdH8z-61" target="KjQjwmtNO-1HOalbdH8z-60">
          <mxGeometry relative="1" as="geometry" />
        </mxCell>
        <mxCell id="KjQjwmtNO-1HOalbdH8z-65" value="是" style="edgeLabel;html=1;align=center;verticalAlign=middle;resizable=0;points=[];" vertex="1" connectable="0" parent="KjQjwmtNO-1HOalbdH8z-64">
          <mxGeometry x="-0.1154" y="2" relative="1" as="geometry">
            <mxPoint as="offset" />
          </mxGeometry>
        </mxCell>
        <mxCell id="KjQjwmtNO-1HOalbdH8z-68" style="edgeStyle=orthogonalEdgeStyle;rounded=0;orthogonalLoop=1;jettySize=auto;html=1;exitX=0.5;exitY=1;exitDx=0;exitDy=0;entryX=0.5;entryY=0;entryDx=0;entryDy=0;" edge="1" parent="1" source="KjQjwmtNO-1HOalbdH8z-61" target="KjQjwmtNO-1HOalbdH8z-67">
          <mxGeometry relative="1" as="geometry" />
        </mxCell>
        <mxCell id="KjQjwmtNO-1HOalbdH8z-61" value="检测评论是否为空" style="rhombus;whiteSpace=wrap;html=1;" vertex="1" parent="1">
          <mxGeometry x="316" y="860" width="134" height="60" as="geometry" />
        </mxCell>
        <mxCell id="KjQjwmtNO-1HOalbdH8z-69" style="edgeStyle=orthogonalEdgeStyle;rounded=0;orthogonalLoop=1;jettySize=auto;html=1;exitX=0.5;exitY=1;exitDx=0;exitDy=0;entryX=0.5;entryY=0;entryDx=0;entryDy=0;" edge="1" parent="1" source="KjQjwmtNO-1HOalbdH8z-67" target="KjQjwmtNO-1HOalbdH8z-48">
          <mxGeometry relative="1" as="geometry" />
        </mxCell>
        <mxCell id="KjQjwmtNO-1HOalbdH8z-67" value="成功发送评论" style="rounded=0;whiteSpace=wrap;html=1;" vertex="1" parent="1">
          <mxGeometry x="330" y="932" width="106" height="42" as="geometry" />
        </mxCell>
        <mxCell id="KjQjwmtNO-1HOalbdH8z-70" style="edgeStyle=orthogonalEdgeStyle;rounded=0;orthogonalLoop=1;jettySize=auto;html=1;exitX=0.5;exitY=1;exitDx=0;exitDy=0;entryX=0.5;entryY=0;entryDx=0;entryDy=0;" edge="1" parent="1" source="KjQjwmtNO-1HOalbdH8z-71" target="KjQjwmtNO-1HOalbdH8z-73">
          <mxGeometry relative="1" as="geometry" />
        </mxCell>
        <mxCell id="KjQjwmtNO-1HOalbdH8z-71" value="开始" style="rounded=1;whiteSpace=wrap;html=1;" vertex="1" parent="1">
          <mxGeometry x="591" y="578" width="92" height="33" as="geometry" />
        </mxCell>
        <mxCell id="KjQjwmtNO-1HOalbdH8z-72" style="edgeStyle=orthogonalEdgeStyle;rounded=0;orthogonalLoop=1;jettySize=auto;html=1;exitX=0.5;exitY=1;exitDx=0;exitDy=0;" edge="1" parent="1" source="KjQjwmtNO-1HOalbdH8z-73">
          <mxGeometry relative="1" as="geometry">
            <mxPoint x="637" y="715" as="targetPoint" />
          </mxGeometry>
        </mxCell>
        <mxCell id="KjQjwmtNO-1HOalbdH8z-73" value="选择活动点击报名" style="rounded=0;whiteSpace=wrap;html=1;" vertex="1" parent="1">
          <mxGeometry x="584" y="646" width="106" height="42" as="geometry" />
        </mxCell>
        <mxCell id="KjQjwmtNO-1HOalbdH8z-74" value="结束" style="rounded=1;whiteSpace=wrap;html=1;" vertex="1" parent="1">
          <mxGeometry x="595.5" y="888" width="83" height="32" as="geometry" />
        </mxCell>
        <mxCell id="KjQjwmtNO-1HOalbdH8z-81" value="是" style="edgeStyle=orthogonalEdgeStyle;rounded=0;orthogonalLoop=1;jettySize=auto;html=1;exitX=0.5;exitY=1;exitDx=0;exitDy=0;entryX=0.5;entryY=0;entryDx=0;entryDy=0;" edge="1" parent="1" source="KjQjwmtNO-1HOalbdH8z-82" target="KjQjwmtNO-1HOalbdH8z-84">
          <mxGeometry relative="1" as="geometry" />
        </mxCell>
        <mxCell id="KjQjwmtNO-1HOalbdH8z-85" style="edgeStyle=orthogonalEdgeStyle;rounded=0;orthogonalLoop=1;jettySize=auto;html=1;exitX=1;exitY=0.5;exitDx=0;exitDy=0;" edge="1" parent="1" source="KjQjwmtNO-1HOalbdH8z-82">
          <mxGeometry relative="1" as="geometry">
            <mxPoint x="772.4000244140625" y="805.9999694824219" as="targetPoint" />
          </mxGeometry>
        </mxCell>
        <mxCell id="KjQjwmtNO-1HOalbdH8z-86" value="否" style="edgeLabel;html=1;align=center;verticalAlign=middle;resizable=0;points=[];" vertex="1" connectable="0" parent="KjQjwmtNO-1HOalbdH8z-85">
          <mxGeometry x="0.5371" y="-3" relative="1" as="geometry">
            <mxPoint as="offset" />
          </mxGeometry>
        </mxCell>
        <mxCell id="KjQjwmtNO-1HOalbdH8z-82" value="校验报名信息，如时间" style="rhombus;whiteSpace=wrap;html=1;" vertex="1" parent="1">
          <mxGeometry x="570" y="718" width="134" height="60" as="geometry" />
        </mxCell>
        <mxCell id="KjQjwmtNO-1HOalbdH8z-83" style="edgeStyle=orthogonalEdgeStyle;rounded=0;orthogonalLoop=1;jettySize=auto;html=1;exitX=0.5;exitY=1;exitDx=0;exitDy=0;entryX=0.5;entryY=0;entryDx=0;entryDy=0;" edge="1" parent="1" source="KjQjwmtNO-1HOalbdH8z-84" target="KjQjwmtNO-1HOalbdH8z-74">
          <mxGeometry relative="1" as="geometry" />
        </mxCell>
        <mxCell id="KjQjwmtNO-1HOalbdH8z-84" value="提示成功报名" style="rounded=0;whiteSpace=wrap;html=1;" vertex="1" parent="1">
          <mxGeometry x="584" y="803" width="106" height="42" as="geometry" />
        </mxCell>
        <mxCell id="KjQjwmtNO-1HOalbdH8z-88" style="edgeStyle=orthogonalEdgeStyle;rounded=0;orthogonalLoop=1;jettySize=auto;html=1;exitX=0.5;exitY=1;exitDx=0;exitDy=0;entryX=0.5;entryY=0;entryDx=0;entryDy=0;" edge="1" parent="1" source="KjQjwmtNO-1HOalbdH8z-87" target="KjQjwmtNO-1HOalbdH8z-74">
          <mxGeometry relative="1" as="geometry" />
        </mxCell>
        <mxCell id="KjQjwmtNO-1HOalbdH8z-87" value="提示报名失败" style="rounded=0;whiteSpace=wrap;html=1;" vertex="1" parent="1">
          <mxGeometry x="721" y="806" width="106" height="42" as="geometry" />
        </mxCell>
        <mxCell id="KjQjwmtNO-1HOalbdH8z-90" value="用户" style="shape=umlLifeline;perimeter=lifelinePerimeter;whiteSpace=wrap;html=1;container=1;dropTarget=0;collapsible=0;recursiveResize=0;outlineConnect=0;portConstraint=eastwest;newEdgeStyle={&quot;curved&quot;:0,&quot;rounded&quot;:0};" vertex="1" parent="1">
          <mxGeometry x="165" y="1041" width="66" height="530" as="geometry" />
        </mxCell>
        <mxCell id="KjQjwmtNO-1HOalbdH8z-96" value="" style="html=1;points=[[0,0,0,0,5],[0,1,0,0,-5],[1,0,0,0,5],[1,1,0,0,-5]];perimeter=orthogonalPerimeter;outlineConnect=0;targetShapes=umlLifeline;portConstraint=eastwest;newEdgeStyle={&quot;curved&quot;:0,&quot;rounded&quot;:0};" vertex="1" parent="KjQjwmtNO-1HOalbdH8z-90">
          <mxGeometry x="28" y="88" width="10" height="218" as="geometry" />
        </mxCell>
        <mxCell id="KjQjwmtNO-1HOalbdH8z-94" value="系统" style="shape=umlLifeline;perimeter=lifelinePerimeter;whiteSpace=wrap;html=1;container=1;dropTarget=0;collapsible=0;recursiveResize=0;outlineConnect=0;portConstraint=eastwest;newEdgeStyle={&quot;curved&quot;:0,&quot;rounded&quot;:0};" vertex="1" parent="1">
          <mxGeometry x="309" y="1041" width="66" height="530" as="geometry" />
        </mxCell>
        <mxCell id="KjQjwmtNO-1HOalbdH8z-97" value="" style="html=1;points=[[0,0,0,0,5],[0,1,0,0,-5],[1,0,0,0,5],[1,1,0,0,-5]];perimeter=orthogonalPerimeter;outlineConnect=0;targetShapes=umlLifeline;portConstraint=eastwest;newEdgeStyle={&quot;curved&quot;:0,&quot;rounded&quot;:0};" vertex="1" parent="KjQjwmtNO-1HOalbdH8z-94">
          <mxGeometry x="28" y="88" width="10" height="218" as="geometry" />
        </mxCell>
        <mxCell id="KjQjwmtNO-1HOalbdH8z-95" value="数据库" style="shape=umlLifeline;perimeter=lifelinePerimeter;whiteSpace=wrap;html=1;container=1;dropTarget=0;collapsible=0;recursiveResize=0;outlineConnect=0;portConstraint=eastwest;newEdgeStyle={&quot;curved&quot;:0,&quot;rounded&quot;:0};" vertex="1" parent="1">
          <mxGeometry x="477" y="1045" width="66" height="530" as="geometry" />
        </mxCell>
        <mxCell id="KjQjwmtNO-1HOalbdH8z-98" value="" style="html=1;points=[[0,0,0,0,5],[0,1,0,0,-5],[1,0,0,0,5],[1,1,0,0,-5]];perimeter=orthogonalPerimeter;outlineConnect=0;targetShapes=umlLifeline;portConstraint=eastwest;newEdgeStyle={&quot;curved&quot;:0,&quot;rounded&quot;:0};" vertex="1" parent="KjQjwmtNO-1HOalbdH8z-95">
          <mxGeometry x="28" y="82" width="10" height="218" as="geometry" />
        </mxCell>
        <mxCell id="KjQjwmtNO-1HOalbdH8z-100" value="点击修改个人信息" style="html=1;verticalAlign=bottom;endArrow=block;curved=0;rounded=0;" edge="1" parent="1" source="KjQjwmtNO-1HOalbdH8z-90" target="KjQjwmtNO-1HOalbdH8z-94">
          <mxGeometry width="80" relative="1" as="geometry">
            <mxPoint x="233" y="1140" as="sourcePoint" />
            <mxPoint x="313" y="1138" as="targetPoint" />
            <Array as="points">
              <mxPoint x="291" y="1143" />
            </Array>
          </mxGeometry>
        </mxCell>
        <mxCell id="KjQjwmtNO-1HOalbdH8z-102" value="点击修改个人信息" style="html=1;verticalAlign=bottom;endArrow=block;curved=0;rounded=0;" edge="1" parent="1" target="KjQjwmtNO-1HOalbdH8z-95">
          <mxGeometry x="-0.0336" y="7" width="80" relative="1" as="geometry">
            <mxPoint x="346" y="1151" as="sourcePoint" />
            <mxPoint x="490" y="1151" as="targetPoint" />
            <Array as="points">
              <mxPoint x="439" y="1151" />
            </Array>
            <mxPoint as="offset" />
          </mxGeometry>
        </mxCell>
        <mxCell id="KjQjwmtNO-1HOalbdH8z-104" value="返回修改后的信息" style="html=1;verticalAlign=bottom;endArrow=block;curved=0;rounded=0;dashed=1;" edge="1" parent="1">
          <mxGeometry x="-0.0336" y="7" width="80" relative="1" as="geometry">
            <mxPoint x="508" y="1224" as="sourcePoint" />
            <mxPoint x="344" y="1224" as="targetPoint" />
            <Array as="points">
              <mxPoint x="437" y="1224" />
            </Array>
            <mxPoint as="offset" />
          </mxGeometry>
        </mxCell>
        <mxCell id="KjQjwmtNO-1HOalbdH8z-106" value="个人信息修改成功" style="html=1;verticalAlign=bottom;endArrow=block;curved=0;rounded=0;dashed=1;" edge="1" parent="1">
          <mxGeometry x="-0.0336" y="7" width="80" relative="1" as="geometry">
            <mxPoint x="332" y="1270" as="sourcePoint" />
            <mxPoint x="204" y="1270" as="targetPoint" />
            <Array as="points" />
            <mxPoint as="offset" />
          </mxGeometry>
        </mxCell>
      </root>
    </mxGraphModel>
  </diagram>
</mxfile>
